<svg xmlns="http://www.w3.org/2000/svg" viewBox="0 0 808 334" width="808" height="334" font-family="ui-monospace,Menlo,monospace">
<title>Answer found within a character budget</title>
<text x="0.0" y="20.0" font-size="13" fill="#8b949e" text-anchor="start" font-weight="600">Answer found within an equal character budget</text>
<text x="0.0" y="38.0" font-size="10" fill="#8b949e" text-anchor="start" font-weight="normal">share of questions whose verbatim answer is inside the first N characters retrieved</text>
<line x1="0" y1="58" x2="16" y2="58" stroke="#9aa3ab" stroke-width="3"/>
<text x="22.0" y="62.0" font-size="10" fill="#8b949e" text-anchor="start" font-weight="normal">fixed_token</text>
<line x1="113.3" y1="58" x2="129.3" y2="58" stroke="#1baf7a" stroke-width="3"/>
<text x="135.3" y="62.0" font-size="10" fill="#8b949e" text-anchor="start" font-weight="normal">recursive_char</text>
<line x1="245.5" y1="58" x2="261.5" y2="58" stroke="#e87ba4" stroke-width="3"/>
<text x="267.5" y="62.0" font-size="10" fill="#8b949e" text-anchor="start" font-weight="normal">semantic</text>
<line x1="339.9" y1="58" x2="355.9" y2="58" stroke="#2a78d6" stroke-width="3"/>
<text x="361.9" y="62.0" font-size="10" fill="#8b949e" text-anchor="start" font-weight="normal">grain_growth</text>
<text x="46.0" y="88.0" font-size="11" fill="#8b949e" text-anchor="start" font-weight="600">docling</text>
<line x1="46" y1="290.0" x2="266" y2="290.0" stroke="#8b949e" stroke-width="1" opacity="0.18"/>
<text x="40.0" y="293.0" font-size="9" fill="#8b949e" text-anchor="end" font-weight="normal">0.2</text>
<line x1="46" y1="235.7" x2="266" y2="235.7" stroke="#8b949e" stroke-width="1" opacity="0.18"/>
<text x="40.0" y="238.7" font-size="9" fill="#8b949e" text-anchor="end" font-weight="normal">0.4</text>
<line x1="46" y1="181.4" x2="266" y2="181.4" stroke="#8b949e" stroke-width="1" opacity="0.18"/>
<text x="40.0" y="184.4" font-size="9" fill="#8b949e" text-anchor="end" font-weight="normal">0.6</text>
<line x1="46" y1="127.1" x2="266" y2="127.1" stroke="#8b949e" stroke-width="1" opacity="0.18"/>
<text x="40.0" y="130.1" font-size="9" fill="#8b949e" text-anchor="end" font-weight="normal">0.8</text>
<text x="46.0" y="306.0" font-size="9" fill="#8b949e" text-anchor="middle" font-weight="normal">2k ch</text>
<text x="156.0" y="306.0" font-size="9" fill="#8b949e" text-anchor="middle" font-weight="normal">4k ch</text>
<text x="266.0" y="306.0" font-size="9" fill="#8b949e" text-anchor="middle" font-weight="normal">8k ch</text>
<polyline points="46.0,254.7 156.0,219.4 266.0,186.9" fill="none" stroke="#9aa3ab" stroke-width="2.5"/>
<circle cx="46.0" cy="254.7" r="3.5" fill="#9aa3ab"/>
<circle cx="156.0" cy="219.4" r="3.5" fill="#9aa3ab"/>
<circle cx="266.0" cy="186.9" r="3.5" fill="#9aa3ab"/>
<polyline points="46.0,252.0 156.0,195.0 266.0,167.9" fill="none" stroke="#1baf7a" stroke-width="2.5"/>
<circle cx="46.0" cy="252.0" r="3.5" fill="#1baf7a"/>
<circle cx="156.0" cy="195.0" r="3.5" fill="#1baf7a"/>
<circle cx="266.0" cy="167.9" r="3.5" fill="#1baf7a"/>
<polyline points="46.0,271.0 156.0,249.3 266.0,205.9" fill="none" stroke="#e87ba4" stroke-width="2.5"/>
<circle cx="46.0" cy="271.0" r="3.5" fill="#e87ba4"/>
<circle cx="156.0" cy="249.3" r="3.5" fill="#e87ba4"/>
<circle cx="266.0" cy="205.9" r="3.5" fill="#e87ba4"/>
<polyline points="46.0,224.9 156.0,192.3 266.0,151.6" fill="none" stroke="#2a78d6" stroke-width="2.5"/>
<circle cx="46.0" cy="224.9" r="3.5" fill="#2a78d6"/>
<circle cx="156.0" cy="192.3" r="3.5" fill="#2a78d6"/>
<circle cx="266.0" cy="151.6" r="3.5" fill="#2a78d6"/>
<text x="300.0" y="88.0" font-size="11" fill="#8b949e" text-anchor="start" font-weight="600">pymupdf4llm</text>
<line x1="300" y1="290.0" x2="520" y2="290.0" stroke="#8b949e" stroke-width="1" opacity="0.18"/>
<line x1="300" y1="235.7" x2="520" y2="235.7" stroke="#8b949e" stroke-width="1" opacity="0.18"/>
<line x1="300" y1="181.4" x2="520" y2="181.4" stroke="#8b949e" stroke-width="1" opacity="0.18"/>
<line x1="300" y1="127.1" x2="520" y2="127.1" stroke="#8b949e" stroke-width="1" opacity="0.18"/>
<text x="300.0" y="306.0" font-size="9" fill="#8b949e" text-anchor="middle" font-weight="normal">2k ch</text>
<text x="410.0" y="306.0" font-size="9" fill="#8b949e" text-anchor="middle" font-weight="normal">4k ch</text>
<text x="520.0" y="306.0" font-size="9" fill="#8b949e" text-anchor="middle" font-weight="normal">8k ch</text>
<polyline points="300.0,227.6 410.0,192.3 520.0,157.0" fill="none" stroke="#9aa3ab" stroke-width="2.5"/>
<circle cx="300.0" cy="227.6" r="3.5" fill="#9aa3ab"/>
<circle cx="410.0" cy="192.3" r="3.5" fill="#9aa3ab"/>
<circle cx="520.0" cy="157.0" r="3.5" fill="#9aa3ab"/>
<polyline points="300.0,260.1 410.0,197.7 520.0,159.7" fill="none" stroke="#1baf7a" stroke-width="2.5"/>
<circle cx="300.0" cy="260.1" r="3.5" fill="#1baf7a"/>
<circle cx="410.0" cy="197.7" r="3.5" fill="#1baf7a"/>
<circle cx="520.0" cy="159.7" r="3.5" fill="#1baf7a"/>
<polyline points="300.0,252.0 410.0,216.7 520.0,176.0" fill="none" stroke="#e87ba4" stroke-width="2.5"/>
<circle cx="300.0" cy="252.0" r="3.5" fill="#e87ba4"/>
<circle cx="410.0" cy="216.7" r="3.5" fill="#e87ba4"/>
<circle cx="520.0" cy="176.0" r="3.5" fill="#e87ba4"/>
<polyline points="300.0,227.6 410.0,176.0 520.0,140.7" fill="none" stroke="#2a78d6" stroke-width="2.5"/>
<circle cx="300.0" cy="227.6" r="3.5" fill="#2a78d6"/>
<circle cx="410.0" cy="176.0" r="3.5" fill="#2a78d6"/>
<circle cx="520.0" cy="140.7" r="3.5" fill="#2a78d6"/>
<text x="554.0" y="88.0" font-size="11" fill="#8b949e" text-anchor="start" font-weight="600">current</text>
<line x1="554" y1="290.0" x2="774" y2="290.0" stroke="#8b949e" stroke-width="1" opacity="0.18"/>
<line x1="554" y1="235.7" x2="774" y2="235.7" stroke="#8b949e" stroke-width="1" opacity="0.18"/>
<line x1="554" y1="181.4" x2="774" y2="181.4" stroke="#8b949e" stroke-width="1" opacity="0.18"/>
<line x1="554" y1="127.1" x2="774" y2="127.1" stroke="#8b949e" stroke-width="1" opacity="0.18"/>
<text x="554.0" y="306.0" font-size="9" fill="#8b949e" text-anchor="middle" font-weight="normal">2k ch</text>
<text x="664.0" y="306.0" font-size="9" fill="#8b949e" text-anchor="middle" font-weight="normal">4k ch</text>
<text x="774.0" y="306.0" font-size="9" fill="#8b949e" text-anchor="middle" font-weight="normal">8k ch</text>
<polyline points="554.0,249.3 664.0,211.3 774.0,165.1" fill="none" stroke="#9aa3ab" stroke-width="2.5"/>
<circle cx="554.0" cy="249.3" r="3.5" fill="#9aa3ab"/>
<circle cx="664.0" cy="211.3" r="3.5" fill="#9aa3ab"/>
<circle cx="774.0" cy="165.1" r="3.5" fill="#9aa3ab"/>
<polyline points="554.0,241.1 664.0,192.3 774.0,151.6" fill="none" stroke="#1baf7a" stroke-width="2.5"/>
<circle cx="554.0" cy="241.1" r="3.5" fill="#1baf7a"/>
<circle cx="664.0" cy="192.3" r="3.5" fill="#1baf7a"/>
<circle cx="774.0" cy="151.6" r="3.5" fill="#1baf7a"/>
<polyline points="554.0,271.0 664.0,233.0 774.0,186.9" fill="none" stroke="#e87ba4" stroke-width="2.5"/>
<circle cx="554.0" cy="271.0" r="3.5" fill="#e87ba4"/>
<circle cx="664.0" cy="233.0" r="3.5" fill="#e87ba4"/>
<circle cx="774.0" cy="186.9" r="3.5" fill="#e87ba4"/>
<polyline points="554.0,216.7 664.0,178.7 774.0,129.9" fill="none" stroke="#2a78d6" stroke-width="2.5"/>
<circle cx="554.0" cy="216.7" r="3.5" fill="#2a78d6"/>
<circle cx="664.0" cy="178.7" r="3.5" fill="#2a78d6"/>
<circle cx="774.0" cy="129.9" r="3.5" fill="#2a78d6"/>
</svg>