<svg xmlns="http://www.w3.org/2000/svg" viewBox="0 0 880 400" width="880" height="400" font-family="ui-monospace,Menlo,monospace">
<title>Parser differences</title>
<text x="0.0" y="20.0" font-size="13" fill="#8b949e" text-anchor="start" font-weight="600">Parser pairs: difference in answer retrieval</text>
<text x="0.0" y="38.0" font-size="10" fill="#8b949e" text-anchor="start" font-weight="normal">positive favours the first parser; bars are 95% intervals over papers; filled = significant after Holm</text>
<line x1="545" y1="74" x2="545" y2="366" stroke="#8b949e" stroke-width="1" opacity="0.35"/>
<text x="545.0" y="382.0" font-size="9" fill="#8b949e" text-anchor="middle" font-weight="normal">no difference</text>
<text x="295.0" y="90.0" font-size="10" fill="#8b949e" text-anchor="end" font-weight="normal">pymupdf4llm vs current [recursive]</text>
<line x1="369.5" y1="86" x2="455.0" y2="86" stroke="#2a78d6" stroke-width="2" opacity="1"/>
<circle cx="412.2" cy="86" r="4.5" fill="#2a78d6" opacity="1"/>
<text x="802.0" y="90.0" font-size="10" fill="#8b949e" text-anchor="start" font-weight="normal">-0.147</text>
<text x="295.0" y="120.0" font-size="10" fill="#8b949e" text-anchor="end" font-weight="normal">pymupdf4llm vs current [grain]</text>
<line x1="378.5" y1="116" x2="459.5" y2="116" stroke="#2a78d6" stroke-width="2" opacity="1"/>
<circle cx="419.0" cy="116" r="4.5" fill="#2a78d6" opacity="1"/>
<text x="802.0" y="120.0" font-size="10" fill="#8b949e" text-anchor="start" font-weight="normal">-0.140</text>
<text x="295.0" y="150.0" font-size="10" fill="#8b949e" text-anchor="end" font-weight="normal">pymupdf4llm vs current [fixed]</text>
<line x1="430.2" y1="146" x2="518.0" y2="146" stroke="#2a78d6" stroke-width="2" opacity="1"/>
<circle cx="475.2" cy="146" r="4.5" fill="#2a78d6" opacity="1"/>
<text x="802.0" y="150.0" font-size="10" fill="#8b949e" text-anchor="start" font-weight="normal">-0.077</text>
<text x="295.0" y="180.0" font-size="10" fill="#8b949e" text-anchor="end" font-weight="normal">docling vs current [recursive]</text>
<line x1="443.8" y1="176" x2="515.8" y2="176" stroke="#2a78d6" stroke-width="2" opacity="1"/>
<circle cx="479.8" cy="176" r="4.5" fill="#2a78d6" opacity="1"/>
<text x="802.0" y="180.0" font-size="10" fill="#8b949e" text-anchor="start" font-weight="normal">-0.072</text>
<text x="295.0" y="210.0" font-size="10" fill="#8b949e" text-anchor="end" font-weight="normal">docling vs current [grain]</text>
<line x1="452.8" y1="206" x2="520.2" y2="206" stroke="#2a78d6" stroke-width="2" opacity="1"/>
<circle cx="486.5" cy="206" r="4.5" fill="#2a78d6" opacity="1"/>
<text x="802.0" y="210.0" font-size="10" fill="#8b949e" text-anchor="start" font-weight="normal">-0.065</text>
<text x="295.0" y="240.0" font-size="10" fill="#8b949e" text-anchor="end" font-weight="normal">docling vs current [fixed]</text>
<line x1="455.0" y1="236" x2="536.0" y2="236" stroke="#2a78d6" stroke-width="2" opacity="1"/>
<circle cx="495.5" cy="236" r="4.5" fill="#2a78d6" opacity="1"/>
<text x="802.0" y="240.0" font-size="10" fill="#8b949e" text-anchor="start" font-weight="normal">-0.055</text>
<text x="295.0" y="270.0" font-size="10" fill="#8b949e" text-anchor="end" font-weight="normal">docling vs pymupdf4llm [fixed]</text>
<line x1="522.5" y1="266" x2="605.8" y2="266" stroke="#8b949e" stroke-width="2" opacity="0.45"/>
<circle cx="565.2" cy="266" r="4.5" fill="#8b949e" opacity="0.45"/>
<text x="802.0" y="270.0" font-size="10" fill="#8b949e" text-anchor="start" font-weight="normal">+0.022</text>
<text x="295.0" y="300.0" font-size="10" fill="#8b949e" text-anchor="end" font-weight="normal">docling vs pymupdf4llm [recursive]</text>
<line x1="569.8" y1="296" x2="655.2" y2="296" stroke="#2a78d6" stroke-width="2" opacity="1"/>
<circle cx="612.5" cy="296" r="4.5" fill="#2a78d6" opacity="1"/>
<text x="802.0" y="300.0" font-size="10" fill="#8b949e" text-anchor="start" font-weight="normal">+0.075</text>
<text x="295.0" y="330.0" font-size="10" fill="#8b949e" text-anchor="end" font-weight="normal">docling vs pymupdf4llm [grain]</text>
<line x1="572.0" y1="326" x2="653.0" y2="326" stroke="#2a78d6" stroke-width="2" opacity="1"/>
<circle cx="612.5" cy="326" r="4.5" fill="#2a78d6" opacity="1"/>
<text x="802.0" y="330.0" font-size="10" fill="#8b949e" text-anchor="start" font-weight="normal">+0.075</text>
</svg>