<svg xmlns="http://www.w3.org/2000/svg" viewBox="0 0 760 231" width="760" height="231" font-family="ui-monospace,Menlo,monospace">
<title>Ends mid-sentence (% of chunks, lower is better)</title>
<text x="0" y="14" font-size="13" font-weight="600" fill="#8b949e">Ends mid-sentence (% of chunks, lower is better)</text>
<line x1="170.0" y1="26" x2="170.0" y2="219" stroke="#8b949e" stroke-width="1" opacity="0.22"/>
<text x="170.0" y="36" font-size="10" fill="#8b949e" text-anchor="middle" opacity="0.85">0%</text>
<line x1="300.0" y1="26" x2="300.0" y2="219" stroke="#8b949e" stroke-width="1" opacity="0.22"/>
<text x="300.0" y="36" font-size="10" fill="#8b949e" text-anchor="middle" opacity="0.85">20%</text>
<line x1="430.0" y1="26" x2="430.0" y2="219" stroke="#8b949e" stroke-width="1" opacity="0.22"/>
<text x="430.0" y="36" font-size="10" fill="#8b949e" text-anchor="middle" opacity="0.85">40%</text>
<line x1="560.0" y1="26" x2="560.0" y2="219" stroke="#8b949e" stroke-width="1" opacity="0.22"/>
<text x="560.0" y="36" font-size="10" fill="#8b949e" text-anchor="middle" opacity="0.85">60%</text>
<line x1="690.0" y1="26" x2="690.0" y2="219" stroke="#8b949e" stroke-width="1" opacity="0.22"/>
<text x="690.0" y="36" font-size="10" fill="#8b949e" text-anchor="middle" opacity="0.85">80%</text>
<text x="0" y="69" font-size="11" fill="#8b949e" font-weight="600">recursive-512</text>
<path d="M170.0 44.0 H 680.1 Q 684.1 44.0 684.1 48.0 V 53.0 Q 684.1 57.0 680.1 57.0 H 170.0 Z" fill="#1baf7a"/>
<text x="690.1" y="54" font-size="10.5" fill="#8b949e">79.1%</text>
<path d="M170.0 59.0 H 598.9 Q 602.9 59.0 602.9 63.0 V 68.0 Q 602.9 72.0 598.9 72.0 H 170.0 Z" fill="#eb6834"/>
<text x="608.9" y="69" font-size="10.5" fill="#8b949e">66.6%</text>
<path d="M170.0 74.0 H 456.6 Q 460.6 74.0 460.6 78.0 V 83.0 Q 460.6 87.0 456.6 87.0 H 170.0 Z" fill="#2a78d6"/>
<text x="466.6" y="84" font-size="10.5" fill="#8b949e">44.7%</text>
<text x="0" y="128" font-size="11" fill="#8b949e" font-weight="600">semantic-stddev</text>
<path d="M170.0 103.0 H 175.8 Q 179.8 103.0 179.8 107.0 V 112.0 Q 179.8 116.0 175.8 116.0 H 170.0 Z" fill="#1baf7a"/>
<text x="185.8" y="113" font-size="10.5" fill="#8b949e">1.5%</text>
<path d="M170.0 118.0 H 173.6 Q 177.2 118.0 177.2 121.6 V 127.4 Q 177.2 131.0 173.6 131.0 H 170.0 Z" fill="#eb6834"/>
<text x="183.2" y="128" font-size="10.5" fill="#8b949e">1.1%</text>
<path d="M170.0 133.0 H 172.6 Q 175.2 133.0 175.2 135.6 V 143.4 Q 175.2 146.0 172.6 146.0 H 170.0 Z" fill="#2a78d6"/>
<text x="181.2" y="143" font-size="10.5" fill="#8b949e">0.8%</text>
<text x="0" y="187" font-size="11" fill="#8b949e" font-weight="600">production</text>
<path d="M170.0 162.0 H 333.0 Q 337.0 162.0 337.0 166.0 V 171.0 Q 337.0 175.0 333.0 175.0 H 170.0 Z" fill="#1baf7a"/>
<text x="343.0" y="172" font-size="10.5" fill="#8b949e">25.7%</text>
<path d="M170.0 177.0 H 536.5 Q 540.5 177.0 540.5 181.0 V 186.0 Q 540.5 190.0 536.5 190.0 H 170.0 Z" fill="#eb6834"/>
<text x="546.5" y="187" font-size="10.5" fill="#8b949e">57%</text>
<path d="M170.0 192.0 H 261.6 Q 265.6 192.0 265.6 196.0 V 201.0 Q 265.6 205.0 261.6 205.0 H 170.0 Z" fill="#2a78d6"/>
<text x="271.6" y="202" font-size="10.5" fill="#8b949e">14.7%</text>
<line x1="170" y1="26" x2="170" y2="219" stroke="#8b949e" stroke-width="1" opacity="0.5"/>
</svg>